# Blender v2.80 (sub 74) OBJ File: ''
# www.blender.org
mtllib bunny.mtl
o l_ear1_Mesh.001
v 0.460073 14.803556 -0.540656
v 2.239300 14.803556 -0.540656
v 0.460073 18.873564 -0.540619
v 2.239299 18.873564 -0.540619
v 0.460073 18.873575 -1.850731
v 2.239299 18.873575 -1.850731
v 0.460073 14.803568 -1.850768
v 2.239300 14.803568 -1.850768
vt 0.375000 0.000000
vt 0.625000 0.000000
vt 0.625000 0.250000
vt 0.375000 0.250000
vt 0.625000 0.500000
vt 0.375000 0.500000
vt 0.625000 0.750000
vt 0.375000 0.750000
vt 0.625000 1.000000
vt 0.375000 1.000000
vt 0.875000 0.000000
vt 0.875000 0.250000
vt 0.125000 0.000000
vt 0.125000 0.250000
vn 0.0000 -0.0000 1.0000
vn 0.0000 1.0000 0.0000
vn -0.0000 0.0000 -1.0000
vn -0.0000 -1.0000 -0.0000
vn 1.0000 0.0000 0.0000
vn -1.0000 -0.0000 -0.0000
usemtl lambert1
s 1
f 1/1/1 2/2/1 4/3/1 3/4/1
f 3/4/2 4/3/2 6/5/2 5/6/2
f 5/6/3 6/5/3 8/7/3 7/8/3
f 7/8/4 8/7/4 2/9/4 1/10/4
f 2/2/5 8/11/5 6/12/5 4/3/5
f 7/13/6 1/1/6 3/4/6 5/14/6
o r_ear1_Mesh.002
v -2.488374 14.803556 -0.540655
v -0.709147 14.803556 -0.540656
v -2.488374 18.873564 -0.540619
v -0.709148 18.873564 -0.540619
v -2.488374 18.873575 -1.850731
v -0.709148 18.873575 -1.850731
v -2.488374 14.803568 -1.850768
v -0.709147 14.803568 -1.850768
vt 0.375000 0.000000
vt 0.625000 0.000000
vt 0.625000 0.250000
vt 0.375000 0.250000
vt 0.625000 0.500000
vt 0.375000 0.500000
vt 0.625000 0.750000
vt 0.375000 0.750000
vt 0.625000 1.000000
vt 0.375000 1.000000
vt 0.875000 0.000000
vt 0.875000 0.250000
vt 0.125000 0.000000
vt 0.125000 0.250000
vn 0.0000 -0.0000 1.0000
vn 0.0000 1.0000 0.0000
vn 0.0000 0.0000 -1.0000
vn 0.0000 -1.0000 -0.0000
vn 1.0000 0.0000 0.0000
vn -1.0000 0.0000 0.0000
usemtl lambert1
s 1
f 9/15/7 10/16/7 12/17/7 11/18/7
f 11/18/8 12/17/8 14/19/8 13/20/8
f 13/20/9 14/19/9 16/21/9 15/22/9
f 15/22/10 16/21/10 10/23/10 9/24/10
f 10/16/11 16/25/11 14/26/11 12/17/11
f 15/27/12 9/15/12 11/18/12 13/28/12
o l_eybrow1_Mesh.003
v 1.003190 13.621753 3.801028
v 3.043810 14.494929 3.801035
v 0.693661 14.345126 3.801034
v 2.734281 15.218302 3.801042
v 0.693661 14.345138 2.490922
v 2.734281 15.218313 2.490930
v 1.003190 13.621765 2.490915
v 3.043810 14.494941 2.490923
vt 0.375000 0.000000
vt 0.625000 0.000000
vt 0.625000 0.250000
vt 0.375000 0.250000
vt 0.625000 0.500000
vt 0.375000 0.500000
vt 0.625000 0.750000
vt 0.375000 0.750000
vt 0.625000 1.000000
vt 0.375000 1.000000
vt 0.875000 0.000000
vt 0.875000 0.250000
vt 0.125000 0.000000
vt 0.125000 0.250000
vn 0.0000 -0.0000 1.0000
vn -0.3934 0.9194 0.0000
vn 0.0000 0.0000 -1.0000
vn 0.3934 -0.9194 -0.0000
vn 0.9194 0.3934 0.0000
vn -0.9194 -0.3934 -0.0000
usemtl lambert1
s 1
f 17/29/13 18/30/13 20/31/13 19/32/13
f 19/32/14 20/31/14 22/33/14 21/34/14
f 21/34/15 22/33/15 24/35/15 23/36/15
f 23/36/16 24/35/16 18/37/16 17/38/16
f 18/30/17 24/39/17 22/40/17 20/31/17
f 23/41/18 17/29/18 19/32/18 21/42/18
o l_eye1_Mesh.004
v 1.367913 13.271575 3.767173
v 2.204320 13.288808 3.767173
v 1.350635 14.110165 3.767181
v 2.187042 14.127398 3.767181
v 1.350635 14.110176 2.457068
v 2.187042 14.127410 2.457069
v 1.367913 13.271586 2.457061
v 2.204320 13.288819 2.457061
vt 0.375000 0.000000
vt 0.625000 0.000000
vt 0.625000 0.250000
vt 0.375000 0.250000
vt 0.625000 0.500000
vt 0.375000 0.500000
vt 0.625000 0.750000
vt 0.375000 0.750000
vt 0.625000 1.000000
vt 0.375000 1.000000
vt 0.875000 0.000000
vt 0.875000 0.250000
vt 0.125000 0.000000
vt 0.125000 0.250000
vn 0.0000 -0.0000 1.0000
vn -0.0206 0.9998 0.0000
vn 0.0000 0.0000 -1.0000
vn 0.0206 -0.9998 -0.0000
vn 0.9998 0.0206 0.0000
vn -0.9998 -0.0206 -0.0000
usemtl lambert1
s 1
f 25/43/19 26/44/19 28/45/19 27/46/19
f 27/46/20 28/45/20 30/47/20 29/48/20
f 29/48/21 30/47/21 32/49/21 31/50/21
f 31/50/22 32/49/22 26/51/22 25/52/22
f 26/44/23 32/53/23 30/54/23 28/45/23
f 31/55/24 25/43/24 27/46/24 29/56/24
o l_mouth1_Mesh.005
v 0.093235 12.046355 3.824971
v 1.058672 11.262519 3.824964
v 0.401261 12.434208 3.824974
v 1.366699 11.650372 3.824967
v 0.401261 12.434220 2.514862
v 1.366699 11.650384 2.514855
v 0.093235 12.046367 2.514858
v 1.058672 11.262530 2.514851
vt 0.375000 0.000000
vt 0.625000 0.000000
vt 0.625000 0.250000
vt 0.375000 0.250000
vt 0.625000 0.500000
vt 0.375000 0.500000
vt 0.625000 0.750000
vt 0.375000 0.750000
vt 0.625000 1.000000
vt 0.375000 1.000000
vt 0.875000 0.000000
vt 0.875000 0.250000
vt 0.125000 0.000000
vt 0.125000 0.250000
vn 0.0000 -0.0000 1.0000
vn 0.6303 0.7763 0.0000
vn 0.0000 0.0000 -1.0000
vn -0.6303 -0.7763 -0.0000
vn 0.7831 -0.6219 -0.0000
vn -0.7831 0.6219 0.0000
usemtl lambert1
s 1
f 33/57/25 34/58/25 36/59/25 35/60/25
f 35/60/26 36/59/26 38/61/26 37/62/26
f 37/62/27 38/61/27 40/63/27 39/64/27
f 39/64/28 40/63/28 34/65/28 33/66/28
f 34/58/29 40/67/29 38/68/29 36/59/29
f 39/69/30 33/57/30 35/60/30 37/70/30
o nose1_Mesh.006
v -0.205044 11.908890 3.621567
v 0.493015 11.923272 3.621567
v -0.219464 12.608770 3.621573
v 0.478595 12.623153 3.621573
v -0.219464 12.608780 2.528164
v 0.478595 12.623163 2.528164
v -0.205044 11.908899 2.528157
v 0.493015 11.923283 2.528157
vt 0.375000 0.000000
vt 0.625000 0.000000
vt 0.625000 0.250000
vt 0.375000 0.250000
vt 0.625000 0.500000
vt 0.375000 0.500000
vt 0.625000 0.750000
vt 0.375000 0.750000
vt 0.625000 1.000000
vt 0.375000 1.000000
vt 0.875000 0.000000
vt 0.875000 0.250000
vt 0.125000 0.000000
vt 0.125000 0.250000
vn 0.0000 -0.0000 1.0000
vn -0.0206 0.9998 0.0000
vn -0.0000 0.0000 -1.0000
vn 0.0206 -0.9998 -0.0000
vn 0.9998 0.0206 0.0000
vn -0.9998 -0.0206 -0.0000
usemtl lambert1
s 1
f 41/71/31 42/72/31 44/73/31 43/74/31
f 43/74/32 44/73/32 46/75/32 45/76/32
f 45/76/33 46/75/33 48/77/33 47/78/33
f 47/78/34 48/77/34 42/79/34 41/80/34
f 42/72/35 48/81/35 46/82/35 44/73/35
f 47/83/36 41/71/36 43/74/36 45/84/36
o r_mouth1_Mesh.007
v -0.763826 11.265734 3.824964
v 0.189380 12.064399 3.824971
v -1.085988 11.641929 3.824967
v -0.132782 12.440594 3.824974
v -1.085988 11.641940 2.514855
v -0.132782 12.440605 2.514862
v -0.763826 11.265745 2.514852
v 0.189380 12.064411 2.514859
vt 0.375000 0.000000
vt 0.625000 0.000000
vt 0.625000 0.250000
vt 0.375000 0.250000
vt 0.625000 0.500000
vt 0.375000 0.500000
vt 0.625000 0.750000
vt 0.375000 0.750000
vt 0.625000 1.000000
vt 0.375000 1.000000
vt 0.875000 0.000000
vt 0.875000 0.250000
vt 0.125000 0.000000
vt 0.125000 0.250000
vn 0.0000 -0.0000 1.0000
vn -0.6422 0.7665 0.0000
vn 0.0000 0.0000 -1.0000
vn 0.6422 -0.7665 -0.0000
vn 0.7595 0.6505 0.0000
vn -0.7595 -0.6505 -0.0000
usemtl lambert1
s 1
f 49/85/37 50/86/37 52/87/37 51/88/37
f 51/88/38 52/87/38 54/89/38 53/90/38
f 53/90/39 54/89/39 56/91/39 55/92/39
f 55/92/40 56/91/40 50/93/40 49/94/40
f 50/86/41 56/95/41 54/96/41 52/87/41
f 55/97/42 49/85/42 51/88/42 53/98/42
o r_eye1_Mesh.008
v -1.311773 13.271576 3.767173
v -2.112977 13.288809 3.767173
v -1.296065 14.110166 3.767181
v -2.097274 14.127398 3.767181
v -1.296065 14.110178 2.457069
v -2.097274 14.127411 2.457069
v -1.311773 13.271588 2.457061
v -2.112977 13.288821 2.457061
vt 0.375000 0.000000
vt 0.375000 0.250000
vt 0.625000 0.250000
vt 0.625000 0.000000
vt 0.375000 0.500000
vt 0.625000 0.500000
vt 0.375000 0.750000
vt 0.625000 0.750000
vt 0.375000 1.000000
vt 0.625000 1.000000
vt 0.875000 0.250000
vt 0.875000 0.000000
vt 0.125000 0.000000
vt 0.125000 0.250000
vn -0.0000 -0.0000 1.0000
vn 0.0215 0.9998 0.0000
vn 0.0000 0.0000 -1.0000
vn -0.0215 -0.9998 -0.0000
vn -0.9998 0.0187 0.0000
vn 0.9998 -0.0187 -0.0000
usemtl lambert1
s 1
f 57/99/43 59/100/43 60/101/43 58/102/43
f 59/100/44 61/103/44 62/104/44 60/101/44
f 61/103/45 63/105/45 64/106/45 62/104/45
f 63/105/46 57/107/46 58/108/46 64/106/46
f 58/102/47 60/101/47 62/109/47 64/110/47
f 63/111/48 61/112/48 59/100/48 57/99/48
o r_eyebrow1_Mesh.009
v -0.962232 13.621754 3.830245
v -2.918105 14.494930 3.830253
v -0.665707 14.345127 3.830252
v -2.623545 15.218303 3.830260
v -0.665707 14.345139 2.520140
v -2.623545 15.218314 2.520148
v -0.962232 13.621765 2.520134
v -2.918105 14.494942 2.520142
vt 0.375000 0.000000
vt 0.375000 0.250000
vt 0.625000 0.250000
vt 0.625000 0.000000
vt 0.375000 0.500000
vt 0.625000 0.500000
vt 0.375000 0.750000
vt 0.625000 0.750000
vt 0.375000 1.000000
vt 0.625000 1.000000
vt 0.875000 0.250000
vt 0.875000 0.000000
vt 0.125000 0.000000
vt 0.125000 0.250000
vn 0.0000 -0.0000 1.0000
vn 0.4073 0.9133 0.0000
vn -0.0000 0.0000 -1.0000
vn -0.4077 -0.9131 -0.0000
vn -0.9262 0.3771 0.0000
vn 0.9253 -0.3793 -0.0000
usemtl lambert1
s 1
f 65/113/49 67/114/49 68/115/49 66/116/49
f 67/114/50 69/117/50 70/118/50 68/115/50
f 69/117/51 71/119/51 72/120/51 70/118/51
f 71/119/52 65/121/52 66/122/52 72/120/52
f 66/116/53 68/115/53 70/123/53 72/124/53
f 71/125/54 69/126/54 67/114/54 65/113/54
o head1_geo_Mesh
v -3.276379 10.334764 3.276474
v 3.276378 10.334764 3.276473
v -3.276379 15.370235 3.276519
v 3.276378 15.370235 3.276519
v -3.276379 15.370295 -3.276237
v 3.276378 15.370295 -3.276237
v -3.276379 10.334823 -3.276283
v 3.276378 10.334823 -3.276283
vt 0.393043 0.319136
vt 0.635332 0.319136
vt 0.635332 0.505424
vt 0.393043 0.505424
vt 0.635332 0.722923
vt 0.393043 0.722923
vt 0.635332 0.878001
vt 0.393043 0.878001
vt 0.393043 0.132847
vt 0.635332 0.132847
vt 0.877621 0.319136
vt 0.877621 0.505424
vt 0.150755 0.319136
vt 0.150755 0.505424
vn 0.0000 -0.0000 1.0000
vn 0.0000 1.0000 0.0000
vn -0.0000 0.0000 -1.0000
vn -0.0000 -1.0000 -0.0000
vn 1.0000 0.0000 0.0000
vn -1.0000 0.0000 -0.0000
usemtl lambert2
s 1
f 73/127/55 74/128/55 76/129/55 75/130/55
f 75/130/56 76/129/56 78/131/56 77/132/56
f 77/132/57 78/131/57 80/133/57 79/134/57
f 79/135/58 80/136/58 74/128/58 73/127/58
f 74/128/59 80/137/59 78/138/59 76/129/59
f 79/139/60 73/127/60 75/130/60 77/140/60
o l_elbow1_geo_Mesh.010
v 7.382614 7.885637 1.374184
v 7.382615 9.971730 1.374184
v 7.692554 9.971730 -0.675758
v 7.692554 7.885637 -0.675758
v 5.334018 9.971731 -1.032353
v 5.024081 9.971731 1.017589
v 5.334018 7.885637 -1.032353
v 5.024080 7.885637 1.017589
vt 0.722220 0.410136
vt 0.722220 0.505424
vt 0.635332 0.505424
vt 0.635332 0.410136
vt 0.514188 0.505424
vt 0.635332 0.600712
vt 0.514188 0.600712
vt 0.514188 0.696000
vt 0.635332 0.696000
vt 0.514188 0.410136
vt 0.514188 0.314848
vt 0.635332 0.314848
vn 0.9888 -0.0000 0.1495
vn 0.0000 1.0000 0.0000
vn 0.1495 -0.0000 -0.9888
vn 0.0000 -1.0000 -0.0000
vn -0.1495 0.0000 0.9888
vn -0.9888 0.0000 -0.1495
usemtl lambert2
s 1
f 84/141/61 83/142/61 82/143/61 81/144/61
f 86/145/62 82/143/62 83/146/62 85/147/62
f 87/148/63 85/147/63 83/146/63 84/149/63
f 88/150/64 87/151/64 84/152/64 81/144/64
f 86/145/65 88/150/65 81/144/65 82/143/65
f 88/150/66 86/145/66 85/147/66 87/151/66
o l_bicep1_geo_Mesh.011
v 2.793156 7.885638 1.036620
v 2.793156 9.971731 1.036621
v 2.793156 9.971731 -1.036619
v 2.793156 7.885638 -1.036619
v 5.178495 9.971731 1.036621
v 5.178495 9.971731 -1.036619
v 5.178495 7.885638 -1.036619
v 5.178495 7.885638 1.036620
vt 0.393043 0.410136
vt 0.514188 0.410136
vt 0.514188 0.505424
vt 0.393043 0.505424
vt 0.514188 0.600712
vt 0.393043 0.600712
vt 0.514188 0.696000
vt 0.393043 0.696000
vt 0.393043 0.314848
vt 0.514188 0.314848
vt 0.306155 0.505424
vt 0.306155 0.410136
vn 0.0000 -0.0000 1.0000
vn 0.0000 1.0000 0.0000
vn 0.0000 0.0000 -1.0000
vn 0.0000 -1.0000 0.0000
vn -1.0000 0.0000 0.0000
vn 1.0000 0.0000 0.0000
usemtl lambert2
s 1
f 89/153/67 96/154/67 93/155/67 90/156/67
f 90/156/68 93/155/68 94/157/68 91/158/68
f 91/158/69 94/157/69 95/159/69 92/160/69
f 92/161/70 95/162/70 96/154/70 89/153/70
f 89/153/71 90/156/71 91/163/71 92/164/71
f 95/162/72 94/157/72 93/155/72 96/154/72
o r_elbow1_geo_Mesh.012
v -7.382615 7.885636 1.374188
v -7.382615 9.971730 1.374188
v -7.692555 9.971730 -0.675754
v -7.692555 7.885637 -0.675755
v -5.334019 9.971730 -1.032349
v -5.024081 9.971730 1.017593
v -5.334019 7.885637 -1.032350
v -5.024081 7.885636 1.017592
vt 0.514188 0.505424
vt 0.514188 0.600712
vt 0.635332 0.600712
vt 0.635332 0.505424
vt 0.514188 0.696000
vt 0.635332 0.696000
vt 0.514188 0.410136
vt 0.635332 0.410136
vt 0.635332 0.314848
vt 0.514188 0.314848
vt 0.722220 0.410136
vt 0.722220 0.505424
vn 0.0000 1.0000 0.0000
vn -0.1495 0.0000 -0.9888
vn -0.0000 -1.0000 -0.0000
vn 0.1495 -0.0000 0.9888
vn -0.9888 -0.0000 0.1495
vn 0.9888 0.0000 -0.1495
usemtl lambert2
s 1
f 102/165/73 101/166/73 99/167/73 98/168/73
f 103/169/74 100/170/74 99/167/74 101/166/74
f 104/171/75 97/172/75 100/173/75 103/174/75
f 102/165/76 98/168/76 97/172/76 104/171/76
f 100/175/77 97/172/77 98/168/77 99/176/77
f 102/165/78 104/171/78 103/174/78 101/166/78
o r_bicep1_geo_Mesh.013
v -2.793156 7.885637 1.036622
v -2.793156 9.971731 1.036623
v -2.793156 9.971731 -1.036617
v -2.793156 7.885638 -1.036618
v -5.178496 9.971731 1.036623
v -5.178496 9.971731 -1.036616
v -5.178495 7.885638 -1.036618
v -5.178495 7.885637 1.036622
vt 0.393043 0.410136
vt 0.393043 0.505424
vt 0.514188 0.505424
vt 0.514188 0.410136
vt 0.393043 0.600712
vt 0.514188 0.600712
vt 0.393043 0.696000
vt 0.514188 0.696000
vt 0.393043 0.314848
vt 0.514188 0.314848
vt 0.306155 0.410136
vt 0.306155 0.505424
vn 0.0000 -0.0000 1.0000
vn 0.0000 1.0000 0.0000
vn -0.0000 0.0000 -1.0000
vn -0.0000 -1.0000 -0.0000
vn 1.0000 0.0000 0.0000
vn -1.0000 -0.0000 0.0000
usemtl lambert2
s 1
f 105/177/79 106/178/79 109/179/79 112/180/79
f 106/178/80 107/181/80 110/182/80 109/179/80
f 107/181/81 108/183/81 111/184/81 110/182/81
f 108/185/82 105/177/82 112/180/82 111/186/82
f 105/177/83 108/187/83 107/188/83 106/178/83
f 110/182/84 111/186/84 112/180/84 109/179/84
o chest1_geo_Mesh.014
v -2.474483 4.869303 2.340430
v 2.474481 4.869303 2.340429
v -2.474483 9.803576 2.340430
v 2.474481 9.803576 2.340430
v -2.474483 9.803576 -2.340427
v 2.474481 9.803576 -2.340427
v -2.474483 4.869303 -2.340427
v 2.474481 4.869303 -2.340428
vt 0.393043 0.263136
vt 0.635332 0.263136
vt 0.635332 0.505424
vt 0.393043 0.505424
vt 0.635332 0.747713
vt 0.393043 0.747713
vt 0.635332 0.990002
vt 0.393043 0.990002
vt 0.393043 0.020847
vt 0.635332 0.020847
vt 0.877621 0.263136
vt 0.877621 0.505424
vt 0.150755 0.263136
vt 0.150755 0.505424
vn 0.0000 -0.0000 1.0000
vn 0.0000 1.0000 0.0000
vn -0.0000 0.0000 -1.0000
vn 0.0000 -1.0000 0.0000
vn 1.0000 0.0000 0.0000
vn -1.0000 -0.0000 0.0000
usemtl lambert2
s 1
f 113/189/85 114/190/85 116/191/85 115/192/85
f 116/191/86 118/193/86 117/194/86 115/192/86
f 117/194/87 118/193/87 120/195/87 119/196/87
f 119/197/88 120/198/88 114/190/88 113/189/88
f 114/190/89 120/199/89 118/200/89 116/191/89
f 119/201/90 113/189/90 115/192/90 117/202/90
o tail1_geo_Mesh.015
v -0.655056 5.251659 -2.197456
v 0.655056 5.251659 -2.197456
v -0.655056 6.561771 -2.197456
v 0.655056 6.561771 -2.197456
v -0.655056 6.561771 -3.507568
v 0.655056 6.561771 -3.507568
v -0.655056 5.251659 -3.507568
v 0.655056 5.251659 -3.507568
vt 0.375000 0.000000
vt 0.625000 0.000000
vt 0.625000 0.250000
vt 0.375000 0.250000
vt 0.625000 0.500000
vt 0.375000 0.500000
vt 0.625000 0.750000
vt 0.375000 0.750000
vt 0.625000 1.000000
vt 0.375000 1.000000
vt 0.875000 0.000000
vt 0.875000 0.250000
vt 0.125000 0.000000
vt 0.125000 0.250000
vn 0.0000 -0.0000 1.0000
vn 0.0000 1.0000 0.0000
vn 0.0000 0.0000 -1.0000
vn 0.0000 -1.0000 0.0000
vn 1.0000 0.0000 0.0000
vn -1.0000 -0.0000 0.0000
usemtl lambert1
s 1
f 121/203/91 122/204/91 124/205/91 123/206/91
f 123/206/92 124/205/92 126/207/92 125/208/92
f 125/208/93 126/207/93 128/209/93 127/210/93
f 127/210/94 128/209/94 122/211/94 121/212/94
f 122/204/95 128/213/95 126/214/95 124/205/95
f 127/215/96 121/203/96 123/206/96 125/216/96
o l_knee1_geo_Mesh.016
v 2.493764 -0.006068 1.246564
v 0.407670 -0.006068 1.246564
v 0.407670 -0.006068 -0.924002
v 2.493764 -0.006068 -0.924002
v 2.493764 2.279455 -0.924001
v 2.493764 2.279454 1.246565
v 0.407670 2.279454 1.246565
v 0.407670 2.279455 -0.924001
vt 0.387469 0.383536
vt 0.514188 0.383536
vt 0.514188 0.505424
vt 0.387469 0.505424
vt 0.514188 0.627313
vt 0.387469 0.627312
vt 0.514188 0.749201
vt 0.387469 0.749201
vt 0.387469 0.261648
vt 0.514188 0.261648
vt 0.331356 0.505424
vt 0.331356 0.383536
vn 0.0000 -0.0000 1.0000
vn -1.0000 0.0000 0.0000
vn -0.0000 0.0000 -1.0000
vn 1.0000 -0.0000 -0.0000
vn -0.0000 -1.0000 -0.0000
vn 0.0000 1.0000 0.0000
usemtl lambert2
s 1
f 129/217/97 134/218/97 135/219/97 130/220/97
f 130/220/98 135/219/98 136/221/98 131/222/98
f 131/222/99 136/221/99 133/223/99 132/224/99
f 132/225/100 133/226/100 134/218/100 129/217/100
f 129/217/101 130/220/101 131/227/101 132/228/101
f 135/219/102 134/218/102 133/226/102 136/221/102
o l_ham1_geo_Mesh.017
v 2.493764 4.455999 -1.131968
v 2.493764 4.645176 1.030338
v 2.493764 2.368350 1.229535
v 2.493764 2.179172 -0.932772
v 0.407670 2.368350 1.229535
v 0.407670 4.645176 1.030339
v 0.407670 2.179172 -0.932772
v 0.407670 4.455999 -1.131968
vt 0.514188 0.261648
vt 0.640907 0.261648
vt 0.640907 0.383536
vt 0.514188 0.383536
vt 0.514188 0.505424
vt 0.640907 0.505424
vt 0.514188 0.627313
vt 0.640906 0.627313
vt 0.514188 0.749201
vt 0.640907 0.749201
vt 0.697020 0.383536
vt 0.697020 0.505424
vn 1.0000 0.0000 0.0000
vn 0.0000 0.0872 0.9962
vn -1.0000 0.0000 0.0000
vn -0.0000 -0.0872 -0.9962
vn -0.0000 0.9962 -0.0872
vn -0.0000 -0.9962 0.0872
usemtl lambert2
s 1
f 140/229/103 137/230/103 138/231/103 139/232/103
f 141/233/104 139/232/104 138/231/104 142/234/104
f 143/235/105 141/233/105 142/234/105 144/236/105
f 140/237/106 143/235/106 144/236/106 137/238/106
f 137/239/107 144/240/107 142/234/107 138/231/107
f 143/235/108 140/229/108 139/232/108 141/233/108
o r_knee1_geo_Mesh.018
v -2.493764 -0.006068 1.246565
v -0.407670 -0.006067 1.246565
v -0.407670 -0.006068 -0.924001
v -2.493764 -0.006068 -0.924001
v -2.493764 2.279455 -0.924001
v -2.493764 2.279455 1.246564
v -0.407670 2.279455 1.246564
v -0.407670 2.279455 -0.924002
vt 0.387469 0.383536
vt 0.387469 0.505424
vt 0.514188 0.505424
vt 0.514188 0.383536
vt 0.387469 0.627312
vt 0.514188 0.627313
vt 0.387469 0.749201
vt 0.514188 0.749201
vt 0.387469 0.261648
vt 0.514188 0.261648
vt 0.331356 0.383536
vt 0.331356 0.505424
vn 0.0000 0.0000 1.0000
vn 1.0000 0.0000 -0.0000
vn -0.0000 -0.0000 -1.0000
vn -1.0000 -0.0000 0.0000
vn 0.0000 -1.0000 0.0000
vn -0.0000 1.0000 0.0000
usemtl lambert2
s 1
f 145/241/109 146/242/109 151/243/109 150/244/109
f 146/242/110 147/245/110 152/246/110 151/243/110
f 147/245/111 148/247/111 149/248/111 152/246/111
f 148/249/112 145/241/112 150/244/112 149/250/112
f 145/241/113 148/251/113 147/252/113 146/242/113
f 150/244/114 151/243/114 152/246/114 149/250/114
o r_ham1_geo_Mesh.019
v -2.493765 4.455998 -1.131968
v -2.493765 4.645175 1.030338
v -2.493764 2.368349 1.229535
v -2.493764 2.179172 -0.932772
v -0.407670 2.368349 1.229534
v -0.407671 4.645175 1.030338
v -0.407670 2.179172 -0.932772
v -0.407671 4.455998 -1.131968
v -1.450717 2.368349 1.229535
v -1.450717 2.179172 -0.932772
vt 0.514188 0.261648
vt 0.514188 0.383536
vt 0.640907 0.383536
vt 0.640907 0.261648
vt 0.514188 0.505424
vt 0.640907 0.505424
vt 0.514188 0.627313
vt 0.640906 0.627313
vt 0.514188 0.749201
vt 0.640907 0.749201
vt 0.697020 0.383536
vt 0.697020 0.505424
vt 0.514188 0.444480
vt 0.514188 0.444480
vn -1.0000 -0.0000 -0.0000
vn 0.0000 0.0872 0.9962
vn 1.0000 0.0000 -0.0000
vn -0.0000 -0.0872 -0.9962
vn -0.0000 0.9962 -0.0872
vn 0.0000 -0.9962 0.0872
usemtl lambert2
s 1
f 156/253/115 155/254/115 154/255/115 153/256/115
f 157/257/116 158/258/116 154/255/116 155/254/116
f 159/259/117 160/260/117 158/258/117 157/257/117
f 156/261/118 153/262/118 160/260/118 159/259/118
f 153/263/119 154/255/119 158/258/119 160/264/119
f 156/253/120 162/265/120 161/266/120 155/254/120
f 162/265/120 159/259/120 157/257/120 161/266/120
